SRRun01_grf
version=1
nRows=37
nColumns=19
inDegrees=no
endheader
time	ground_force_r_vx	ground_force_r_vy	ground_force_r_vz	ground_force_r_px	ground_force_r_py	ground_force_r_pz	ground_force_r_mx	ground_force_r_my	ground_force_r_mz	ground_force_l_vx	ground_force_l_vy	ground_force_l_vz	ground_force_l_px	ground_force_l_py	ground_force_l_pz	ground_force_l_mx	ground_force_l_my	ground_force_l_mz
    147.49900000	    179.14257807	    600.57148414	     40.50780119	      0.72105456	      0.00000000	     -0.27640811	      0.00000823	     -4.17232461	      0.00002820	      0.00000000	      0.00000000	      0.00000000	      0.00000000	      0.00000000	      0.00000000	      0.00000000	      0.00000000	      0.00000000
    147.50000000	    174.72574442	    582.26442221	     34.23558113	      0.72003005	      0.00000000	     -0.27678265	      0.00000809	     -3.31423804	      0.00002812	      0.00000000	      0.00000000	      0.00000000	      0.00000000	      0.00000000	      0.00000000	      0.00000000	      0.00000000	      0.00000000
    147.50100000	    170.88166589	    564.32796879	     28.27901936	      0.71904735	      0.00000000	     -0.27714107	      0.00000796	     -2.34122921	      0.00002793	      0.00000000	      0.00000000	      0.00000000	      0.00000000	      0.00000000	      0.00000000	      0.00000000	      0.00000000	      0.00000000
    147.50200000	    167.75096248	    546.74125744	     23.00485428	      0.71801718	      0.00000000	     -0.27746230	      0.00000783	     -1.38524032	      0.00002759	      0.00000000	      0.00000000	      0.00000000	      0.00000000	      0.00000000	      0.00000000	      0.00000000	      0.00000000	      0.00000000
    147.50300000	    165.37727138	    529.46701392	     18.72098054	      0.71685619	      0.00000000	     -0.27772536	      0.00000770	     -0.57019975	      0.00002707	      0.00000000	      0.00000000	      0.00000000	      0.00000000	      0.00000000	      0.00000000	      0.00000000	      0.00000000	      0.00000000
    147.50400000	    163.70591613	    512.45670781	     15.65659168	      0.71549278	      0.00000000	     -0.27791005	      0.00000755	      0.00108423	      0.00002637	      0.00000000	      0.00000000	      0.00000000	      0.00000000	      0.00000000	      0.00000000	      0.00000000	      0.00000000	      0.00000000
    147.50500000	    162.59356304	    495.65600493	     13.94817648	      0.71387027	      0.00000000	     -0.27799794	      0.00000739	      0.25762216	      0.00002546	      0.00000000	      0.00000000	      0.00000000	      0.00000000	      0.00000000	      0.00000000	      0.00000000	      0.00000000	      0.00000000
    147.50600000	    161.82743279	    479.00996269	     13.63209722	      0.71194772	      0.00000000	     -0.27797358	      0.00000722	      0.16741737	      0.00002436	      0.00000000	      0.00000000	      0.00000000	      0.00000000	      0.00000000	      0.00000000	      0.00000000	      0.00000000	      0.00000000
    147.50700000	    161.15174576	    462.46780232	     14.64410297	      0.70969929	      0.00000000	     -0.27782622	      0.00000704	     -0.25963004	      0.00002309	      0.00000000	      0.00000000	      0.00000000	      0.00000000	      0.00000000	      0.00000000	      0.00000000	      0.00000000	      0.00000000
    147.50800000	    160.29843152	    445.98733852	     16.82584983	      0.70711320	      0.00000000	     -0.27755165	      0.00000685	     -0.97330615	      0.00002167	      0.00000000	      0.00000000	      0.00000000	      0.00000000	      0.00000000	      0.00000000	      0.00000000	      0.00000000	      0.00000000
    147.50900000	    159.01869869	    429.53911358	     19.93814314	      0.70419126	      0.00000000	     -0.27715377	      0.00000665	     -1.88884256	      0.00002014	      0.00000000	      0.00000000	      0.00000000	      0.00000000	      0.00000000	      0.00000000	      0.00000000	      0.00000000	      0.00000000
    147.51000000	    157.11189927	    413.11005087	     23.68009920	      0.70094938	      0.00000000	     -0.27664555	      0.00000645	     -2.89613223	      0.00001856	      0.00000000	      0.00000000	      0.00000000	      0.00000000	      0.00000000	      0.00000000	      0.00000000	      0.00000000	      0.00000000
    147.51100000	    154.44834730	    396.70622607	     27.71282766	      0.69741846	      0.00000000	     -0.27604902	      0.00000624	     -3.87139867	      0.00001697	      0.00000000	      0.00000000	      0.00000000	      0.00000000	      0.00000000	      0.00000000	      0.00000000	      0.00000000	      0.00000000
    147.51200000	    150.98346978	    380.35432534	     31.68572770	      0.69364523	      0.00000000	     -0.27539398	      0.00000602	     -4.69015177	      0.00001541	      0.00000000	      0.00000000	      0.00000000	      0.00000000	      0.00000000	      0.00000000	      0.00000000	      0.00000000	      0.00000000
    147.51300000	    146.76182130	    364.10149967	     35.26320494	      0.68969201	      0.00000000	     -0.27471569	      0.00000579	     -5.24021451	      0.00001390	      0.00000000	      0.00000000	      0.00000000	      0.00000000	      0.00000000	      0.00000000	      0.00000000	      0.00000000	      0.00000000
    147.51400000	    141.91083222	    348.01349157	     38.14959255	      0.68563509	      0.00000000	     -0.27405169	      0.00000555	     -5.43363448	      0.00001249	      0.00000000	      0.00000000	      0.00000000	      0.00000000	      0.00000000	      0.00000000	      0.00000000	      0.00000000	      0.00000000
    147.51500000	    136.62538362	    332.17104451	     40.11027577	      0.68156167	      0.00000000	     -0.27343842	      0.00000531	     -5.21638260	      0.00001119	      0.00000000	      0.00000000	      0.00000000	      0.00000000	      0.00000000	      0.00000000	      0.00000000	      0.00000000	      0.00000000
    147.51600000	    131.14528596	    316.66476083	     40.98740907	      0.67756561	      0.00000000	     -0.27290822	      0.00000505	     -4.57492626	      0.00000999	      0.00000000	      0.00000000	      0.00000000	      0.00000000	      0.00000000	      0.00000000	      0.00000000	      0.00000000	      0.00000000
    147.51700000	    125.72844409	    301.58875419	     40.70910170	      0.67374254	      0.00000000	     -0.27248726	      0.00000479	     -3.53905224	      0.00000892	      0.00000000	      0.00000000	      0.00000000	      0.00000000	      0.00000000	      0.00000000	      0.00000000	      0.00000000	      0.00000000
    147.51800000	    120.62284115	    287.03360853	     39.29149741	      0.67018435	      0.00000000	     -0.27219441	      0.00000452	     -2.18064473	      0.00000797	      0.00000000	      0.00000000	      0.00000000	      0.00000000	      0.00000000	      0.00000000	      0.00000000	      0.00000000	      0.00000000
    147.51900000	    116.04044265	    273.07923955	     36.83379586	      0.66697257	      0.00000000	     -0.27204096	      0.00000425	     -0.60843276	      0.00000713	      0.00000000	      0.00000000	      0.00000000	      0.00000000	      0.00000000	      0.00000000	      0.00000000	      0.00000000	      0.00000000
    147.52000000	    112.13577216	    259.78820542	     33.50693135	      0.66417061	      0.00000000	     -0.27203081	      0.00000399	      1.04098066	      0.00000640	      0.00000000	      0.00000000	      0.00000000	      0.00000000	      0.00000000	      0.00000000	      0.00000000	      0.00000000	      0.00000000
    147.52100000	    108.99130938	    247.19994926	     29.53721527	      0.66181460	      0.00000000	     -0.27216090	      0.00000373	      2.61517889	      0.00000578	      0.00000000	      0.00000000	      0.00000000	      0.00000000	      0.00000000	      0.00000000	      0.00000000	      0.00000000	      0.00000000
    147.52200000	    106.61105836	    235.32652433	     25.18660546	      0.65990410	      0.00000000	     -0.27242160	      0.00000349	      3.96011002	      0.00000527	      0.00000000	      0.00000000	      0.00000000	      0.00000000	      0.00000000	      0.00000000	      0.00000000	      0.00000000	      0.00000000
    147.52300000	    104.92269986	    224.15046368	     20.73135255	      0.65839477	      0.00000000	     -0.27279704	      0.00000327	      4.93508569	      0.00000486	      0.00000000	      0.00000000	      0.00000000	      0.00000000	      0.00000000	      0.00000000	      0.00000000	      0.00000000	      0.00000000
    147.52400000	    103.78777765	    213.62536339	     16.44069934	      0.65719557	      0.00000000	     -0.27326533	      0.00000306	      5.42710695	      0.00000455	      0.00000000	      0.00000000	      0.00000000	      0.00000000	      0.00000000	      0.00000000	      0.00000000	      0.00000000	      0.00000000
    147.52500000	    103.01847468	    203.67934528	     12.55722250	      0.65617271	      0.00000000	     -0.27379895	      0.00000288	      5.36305280	      0.00000433	      0.00000000	      0.00000000	      0.00000000	      0.00000000	      0.00000000	      0.00000000	      0.00000000	      0.00000000	      0.00000000
    147.52600000	    102.39882438	    194.22102691	      9.28032607	      0.65516071	      0.00000000	     -0.27436508	      0.00000273	      4.71850156	      0.00000418	      0.00000000	      0.00000000	      0.00000000	      0.00000000	      0.00000000	      0.00000000	      0.00000000	      0.00000000	      0.00000000
    147.52700000	    101.70778902	    185.14725890	      6.75419274	      0.65397985	      0.00000000	     -0.27492581	      0.00000259	      3.52229197	      0.00000411	      0.00000000	      0.00000000	      0.00000000	      0.00000000	      0.00000000	      0.00000000	      0.00000000	      0.00000000	      0.00000000
    147.52800000	    100.74156729	    176.35183399	      5.06105399	      0.65245829	      0.00000000	     -0.27543800	      0.00000247	      1.85629177	      0.00000409	      0.00000000	      0.00000000	      0.00000000	      0.00000000	      0.00000000	      0.00000000	      0.00000000	      0.00000000	      0.00000000
    147.52900000	     99.33276487	    167.73447508	      4.22001959	      0.65045646	      0.00000000	     -0.27585252	      0.00000236	     -0.14979786	      0.00000411	      0.00000000	      0.00000000	      0.00000000	      0.00000000	      0.00000000	      0.00000000	      0.00000000	      0.00000000	      0.00000000
    147.53000000	     97.36462345	    159.20945561	      4.19108941	      0.64789042	      0.00000000	     -0.27611349	      0.00000225	     -2.32839663	      0.00000415	      0.00000000	      0.00000000	      0.00000000	      0.00000000	      0.00000000	      0.00000000	      0.00000000	      0.00000000	      0.00000000
    147.53100000	     94.77922020	    150.71315869	      4.88348745	      0.64474959	      0.00000000	     -0.27615824	      0.00000215	     -4.48812345	      0.00000420	      0.00000000	      0.00000000	      0.00000000	      0.00000000	      0.00000000	      0.00000000	      0.00000000	      0.00000000	      0.00000000
    147.53200000	     91.57930106	    142.20988508	      6.16716357	      0.64110538	      0.00000000	     -0.27591916	      0.00000204	     -6.43088063	      0.00000423	      0.00000000	      0.00000000	      0.00000000	      0.00000000	      0.00000000	      0.00000000	      0.00000000	      0.00000000	      0.00000000
    147.53300000	     87.82411299	    133.69538191	      7.88621717	      0.63710886	      0.00000000	     -0.27532808	      0.00000192	     -7.97035430	      0.00000423	      0.00000000	      0.00000000	      0.00000000	      0.00000000	      0.00000000	      0.00000000	      0.00000000	      0.00000000	      0.00000000
    147.53400000	     83.62019594	    125.19781846	      9.87306485	      0.63297842	      0.00000000	     -0.27432287	      0.00000180	     -8.95000904	      0.00000418	      0.00000000	      0.00000000	      0.00000000	      0.00000000	      0.00000000	      0.00000000	      0.00000000	      0.00000000	      0.00000000
    147.53500000	     79.10855427	    116.77615957	     11.96229310	      0.62897958	      0.00000000	     -0.27285557	      0.00000167	     -9.25857555	      0.00000408	      0.00000000	      0.00000000	      0.00000000	      0.00000000	      0.00000000	      0.00000000	      0.00000000	      0.00000000	      0.00000000
